<?xml version="1.0" standalone="no"?>
<!DOCTYPE svg PUBLIC "-//W3C//DTD SVG 20010904//EN"
 "http://www.w3.org/TR/2001/REC-SVG-20010904/DTD/svg10.dtd">
<svg version="1.0" xmlns="http://www.w3.org/2000/svg"
 width="567.000000pt" height="567.000000pt" viewBox="0 0 567.000000 567.000000"
 preserveAspectRatio="xMidYMid meet">

<g transform="translate(0.000000,567.000000) scale(0.100000,-0.100000)"
fill="#000000" stroke="none">
<path d="M2665 5613 c-115 -6 -308 -34 -443 -64 -663 -149 -1268 -551 -1658
-1101 -203 -286 -347 -602 -433 -950 -43 -172 -58 -270 -76 -486 -17 -198 -12
-343 21 -580 89 -657 441 -1299 938 -1715 538 -451 1124 -668 1821 -676 332
-3 498 25 881 149 937 303 1649 1113 1849 2103 102 508 61 1024 -121 1527 -50
138 -183 398 -269 530 -289 439 -737 822 -1194 1022 -436 190 -848 266 -1316
241z m568 -50 c-7 -2 -19 -2 -25 0 -7 3 -2 5 12 5 14 0 19 -2 13 -5z m-848
-13 c-11 -5 -33 -8 -50 -8 l-30 0 30 8 c17 4 39 8 50 8 l20 1 -20 -9z m992
-16 c-3 -3 -12 -4 -19 -1 -8 3 -5 6 6 6 11 1 17 -2 13 -5z m78 -14 c3 -6 -1
-7 -9 -4 -18 7 -21 14 -7 14 6 0 13 -4 16 -10z m190 -50 c3 -5 2 -10 -4 -10
-5 0 -13 5 -16 10 -3 6 -2 10 4 10 5 0 13 -4 16 -10z m-710 -622 c5 -17 37
-509 33 -513 -2 -1 -29 -5 -60 -8 l-58 -6 -80 112 c-44 61 -81 116 -83 122 -3
5 -7 7 -11 4 -3 -3 -1 -54 4 -114 6 -60 8 -115 6 -122 -4 -9 -25 -13 -65 -13
-55 0 -61 2 -65 23 -2 12 -10 122 -16 245 -7 123 -13 231 -14 240 -1 14 10 17
59 20 l60 2 84 -120 c46 -67 84 -120 86 -118 1 2 -2 54 -7 116 -5 63 -7 120
-4 128 7 19 125 20 131 2z m278 -14 c40 -14 47 -20 47 -42 0 -28 -23 -181 -36
-239 -3 -18 -4 -33 -1 -33 3 0 31 49 62 108 32 60 65 119 75 132 l18 24 57
-18 58 -18 -7 -91 c-3 -51 -9 -119 -11 -152 l-5 -60 16 35 c80 176 109 230
123 230 32 0 92 -22 97 -34 7 -18 -224 -476 -239 -476 -20 0 -106 31 -112 40
-5 8 9 222 19 298 5 36 -9 44 -20 10 -4 -13 -38 -78 -77 -146 -69 -123 -69
-123 -101 -116 -17 3 -46 12 -63 20 -28 11 -32 17 -28 41 2 15 11 89 20 163
41 359 38 340 53 340 5 0 29 -7 55 -16z m-979 -95 c21 -6 57 -28 81 -50 35
-33 49 -56 79 -142 20 -57 36 -121 36 -145 0 -79 -58 -157 -136 -182 -86 -29
-195 13 -235 90 -28 54 -68 165 -75 208 -14 86 34 168 121 208 56 27 74 28
129 13z m1739 -221 c108 -32 174 -163 133 -261 -20 -48 -100 -168 -133 -199
-82 -78 -227 -62 -290 31 -58 85 -52 156 23 274 60 93 90 125 139 147 48 22
75 24 128 8z m-2214 -62 c68 -36 111 -118 98 -185 -6 -28 -4 -30 105 -77 62
-27 112 -53 112 -59 0 -5 -25 -29 -56 -53 l-55 -43 -103 51 c-89 43 -106 49
-118 37 -12 -12 -5 -26 47 -93 l60 -79 -47 -42 c-26 -24 -52 -43 -57 -43 -9 0
-335 412 -335 423 0 6 157 128 199 154 42 27 108 30 150 9z m2656 -316 c39
-44 78 -94 88 -112 23 -44 22 -112 -4 -165 -33 -69 -171 -185 -243 -204 -69
-19 -108 0 -213 104 -51 50 -93 95 -93 99 0 5 30 37 68 71 37 35 121 114 187
175 65 62 124 112 130 111 5 0 42 -36 80 -79z m-3029 -92 c59 -51 121 -104
138 -118 70 -55 156 -134 156 -144 0 -12 -70 -86 -82 -86 -5 0 -37 23 -71 52
-105 87 -326 279 -331 287 -4 7 70 101 80 101 3 0 52 -42 110 -92z m1909 -18
c4 -6 -7 -10 -24 -10 -17 0 -31 5 -31 10 0 6 11 10 24 10 14 0 28 -4 31 -10z
m1433 -114 c26 -13 42 -37 56 -79 7 -23 -17 -71 -46 -91 -85 -60 -191 57 -127
138 35 45 73 55 117 32z m-1168 -26 c0 -5 -2 -10 -4 -10 -3 0 -8 5 -11 10 -3
6 -1 10 4 10 6 0 11 -4 11 -10z m-540 -729 c92 -47 208 -204 197 -266 -3 -16
-7 -12 -23 20 -73 151 -173 224 -330 240 -57 5 -78 3 -104 -10 -17 -9 -38 -14
-45 -11 -8 3 -15 2 -17 -2 -2 -4 -32 -26 -68 -50 -56 -37 -69 -52 -97 -110
-18 -37 -33 -73 -33 -79 0 -15 -30 -18 -30 -4 0 19 38 97 54 110 9 7 16 19 16
26 0 18 83 100 123 121 69 36 111 44 212 41 81 -3 109 -7 145 -26z m-115 -70
c110 -52 181 -149 192 -260 3 -31 11 -59 17 -63 8 -6 7 -11 -3 -17 -9 -6 -10
-11 -2 -15 32 -20 11 145 -29 224 -23 44 -77 102 -124 132 -27 17 -28 19 -6
13 84 -23 176 -121 206 -221 47 -156 -37 -326 -190 -383 -89 -33 -177 -29
-257 12 -37 18 -63 38 -61 45 1 8 -2 11 -7 8 -10 -6 -34 19 -37 39 -2 11 -39
70 -54 85 -22 22 -25 160 -5 220 36 107 166 206 275 209 14 1 52 -12 85 -28z
m-2101 -67 c13 -5 16 -22 16 -88 0 -44 -3 -105 -6 -133 -7 -52 -7 -53 -41 -53
l-35 0 3 92 c3 73 0 93 -11 96 -8 3 -18 10 -22 15 -8 13 1 37 14 37 5 0 21 9
35 20 29 23 26 22 47 14z m212 -29 c24 -24 24 -28 18 -122 -5 -81 -10 -101
-26 -116 -42 -36 -101 -34 -139 4 -19 19 -20 31 -17 121 3 91 5 102 27 119 35
29 105 26 137 -6z m125 -47 l1 -63 20 63 c17 53 23 62 43 62 34 0 36 -9 13
-75 l-21 -60 22 -69 c23 -73 19 -93 -17 -82 -13 5 -24 22 -31 51 -16 65 -41
55 -41 -16 0 -24 -4 -29 -24 -29 -14 0 -28 4 -31 10 -3 5 -3 68 1 140 l7 130
28 0 c29 0 29 -1 30 -62z m270 31 c14 -14 19 -30 17 -52 -2 -27 -8 -33 -30
-35 -25 -3 -28 0 -28 27 0 24 -4 31 -20 31 -18 0 -20 -7 -22 -75 -1 -41 -2
-83 -2 -92 -1 -12 6 -18 19 -18 16 0 20 6 19 30 0 17 -2 37 -5 45 -3 11 5 15
31 15 l35 0 0 -64 0 -65 -62 -3 c-53 -3 -66 0 -84 18 -19 19 -20 28 -14 122 5
85 10 105 27 120 29 24 93 22 119 -4z m1087 -299 c33 -84 108 -162 199 -207
68 -34 84 -37 157 -38 67 0 89 4 130 25 112 57 216 201 236 325 l9 60 -3 -73
c-6 -125 -75 -233 -208 -324 -103 -69 -214 -72 -345 -8 -69 34 -141 107 -178
180 -30 59 -48 159 -38 208 7 35 8 34 14 -28 3 -36 15 -90 27 -120z m1810 168
c9 -9 12 -9 12 0 0 21 75 15 95 -8 16 -17 17 -33 12 -122 -6 -118 -19 -138
-87 -138 -42 0 -67 18 -76 56 -9 35 2 54 31 54 24 0 27 -4 29 -40 1 -8 8 -16
17 -18 18 -3 29 50 29 134 0 38 -3 44 -20 44 -26 0 -37 -27 -21 -52 15 -24 6
-38 -22 -38 -37 0 -42 12 -39 78 4 62 14 76 40 50z m211 -35 c6 -21 11 -44 11
-52 0 -11 3 -11 15 -1 9 7 15 29 15 51 0 35 3 39 25 39 14 0 28 -7 31 -15 4
-9 3 -72 -1 -140 l-7 -125 -29 0 c-29 0 -29 0 -30 63 l-1 62 -20 -63 c-19 -58
-22 -63 -47 -60 -30 3 -31 13 -5 80 18 46 18 49 -2 118 -12 38 -19 72 -16 75
3 3 16 5 28 5 18 0 25 -8 33 -37z m298 5 c19 -18 23 -32 22 -77 -1 -87 -14
-153 -35 -168 -10 -7 -39 -13 -64 -13 -36 0 -52 5 -69 24 -22 23 -23 30 -16
113 9 115 11 122 48 139 40 17 84 10 114 -18z m127 -83 c-6 -83 -5 -95 9 -95
9 0 18 -4 21 -9 8 -13 -4 -41 -17 -41 -6 0 -20 -9 -32 -20 -14 -13 -28 -17
-43 -13 -23 6 -23 7 -17 127 4 66 8 127 10 134 3 6 20 12 40 12 l36 0 -7 -95z
m-3368 -831 c31 -15 184 -169 184 -186 0 -14 -361 -348 -376 -348 -13 0 -162
165 -179 197 -37 71 -6 155 92 249 117 112 184 133 279 88z m2690 -156 c97
-84 186 -160 197 -170 21 -16 21 -16 -18 -60 -21 -23 -42 -44 -47 -46 -4 -2
-95 72 -203 164 -167 143 -193 169 -183 183 16 22 71 81 75 81 2 0 83 -69 179
-152z m-3197 88 c50 -26 66 -94 31 -138 -48 -62 -130 -54 -164 15 -21 45 -13
79 26 112 33 28 66 32 107 11z m2935 -178 c30 -40 100 -131 155 -203 55 -71
101 -133 101 -137 0 -13 -195 -158 -228 -169 -40 -13 -86 -6 -130 21 -49 30
-72 75 -72 141 l0 56 -101 43 c-55 24 -103 48 -106 53 -7 11 71 83 99 92 9 3
56 -14 107 -40 50 -25 95 -45 101 -45 28 0 16 34 -34 100 -31 40 -56 74 -56
76 0 4 100 84 106 84 2 0 28 -33 58 -72z m-2049 -97 c77 -36 115 -95 115 -180
0 -40 -9 -62 -51 -132 -85 -140 -126 -172 -220 -172 -113 0 -193 81 -194 193
0 48 6 66 44 129 52 89 100 143 144 165 43 21 113 20 162 -3z m397 -197 c10
-7 8 -65 -8 -269 l-6 -70 82 145 c45 80 84 147 86 149 6 6 112 -28 117 -37 4
-6 -11 -147 -43 -415 l-12 -99 -35 7 c-67 12 -84 23 -78 47 11 54 36 250 32
255 -3 2 -17 -18 -31 -47 -22 -43 -103 -188 -112 -198 -1 -2 -28 3 -58 12 -56
16 -56 17 -56 55 0 21 5 85 10 141 6 56 9 105 6 108 -3 3 -12 -10 -20 -29 -8
-19 -34 -77 -59 -130 l-45 -97 -56 16 c-31 8 -56 19 -56 24 0 14 222 453 232
459 10 6 87 -13 110 -27z m1176 22 c56 -20 98 -71 132 -159 42 -110 50 -149
38 -199 -32 -146 -229 -200 -330 -92 -36 39 -88 176 -95 250 -4 49 -1 68 16
101 46 90 148 133 239 99z m-384 -123 c10 -68 28 -453 22 -468 -4 -12 -18 -15
-58 -13 l-53 3 -65 90 c-36 50 -73 102 -82 115 -16 24 -16 19 -11 -102 l6
-128 -61 0 c-33 0 -63 3 -65 8 -11 17 -38 495 -29 504 5 5 33 8 62 6 l53 -3
81 -113 c45 -63 82 -108 84 -100 1 7 -2 58 -6 113 -11 117 -6 125 69 125 47 0
47 0 53 -37z"/>
<path d="M2136 4609 c-15 -12 -26 -30 -26 -44 0 -37 61 -198 83 -217 37 -34
93 -17 109 32 3 8 -10 60 -29 115 -45 132 -78 160 -137 114z"/>
<path d="M3894 4396 c-30 -21 -124 -179 -124 -208 0 -35 31 -60 71 -56 29 3
40 13 87 83 29 44 57 89 61 100 12 29 -6 70 -35 84 -32 14 -35 14 -60 -3z"/>
<path d="M1633 4314 c-18 -14 -33 -29 -33 -33 0 -5 13 -24 28 -44 l28 -35 37
35 c41 38 46 62 19 86 -25 23 -41 21 -79 -9z"/>
<path d="M4230 3939 l-105 -99 29 -25 c49 -42 76 -34 161 46 83 79 90 99 53
149 -12 17 -24 30 -27 29 -3 0 -53 -45 -111 -100z"/>
<path d="M4637 3883 c-31 -35 -31 -68 0 -103 25 -27 34 -32 57 -26 63 16 87
83 43 124 -28 27 -78 29 -100 5z m85 -20 c24 -21 23 -54 -1 -60 -11 -3 -21
-13 -24 -24 -3 -10 -10 -19 -16 -19 -16 0 -27 33 -13 38 14 4 16 32 3 32 -6 0
-13 -4 -16 -10 -8 -13 -25 -13 -25 0 0 13 51 59 64 60 5 0 18 -7 28 -17z"/>
<path d="M4690 3846 c0 -15 18 -31 26 -23 7 7 -7 37 -17 37 -5 0 -9 -6 -9 -14z"/>
<path d="M3093 2703 c-3 -10 -17 -33 -30 -51 -14 -18 -23 -36 -20 -39 6 -6 67
85 67 99 0 14 -10 8 -17 -9z"/>
<path d="M928 2883 c-4 -79 2 -101 21 -89 6 4 11 40 11 87 0 62 -3 79 -14 79
-11 0 -15 -19 -18 -77z"/>
<path d="M4730 2701 c0 -44 4 -82 9 -86 15 -9 19 7 22 85 2 63 0 76 -14 78
-15 3 -17 -7 -17 -77z"/>
<path d="M1465 1781 c-46 -28 -145 -137 -145 -159 0 -11 12 -33 28 -50 l27
-31 105 99 105 100 -33 30 c-38 35 -47 36 -87 11z"/>
<path d="M976 1809 c-54 -42 -19 -129 51 -129 35 0 73 38 73 72 0 25 -53 78
-78 78 -11 0 -31 -9 -46 -21z m61 -29 c-7 -31 1 -38 21 -18 6 6 15 9 19 5 8
-8 -46 -67 -61 -67 -17 0 -46 32 -46 52 0 10 8 22 18 25 9 4 21 12 25 20 15
25 30 14 24 -17z"/>
<path d="M992 1744 c1 -9 9 -19 16 -22 9 -3 13 2 10 14 -1 9 -9 19 -16 22 -9
3 -13 -2 -10 -14z"/>
<path d="M3981 1365 c-36 -41 -38 -55 -13 -78 26 -24 43 -21 82 12 l34 28 -27
37 c-16 20 -32 36 -36 36 -5 0 -23 -16 -40 -35z"/>
<path d="M1853 1457 c-23 -13 -133 -180 -133 -202 0 -26 41 -65 68 -65 38 0
43 5 106 102 63 97 69 127 30 157 -30 24 -40 25 -71 8z"/>
<path d="M3412 1257 c-12 -13 -22 -31 -22 -39 0 -35 62 -194 83 -211 38 -33
106 -3 107 46 0 28 -59 189 -77 209 -22 25 -65 22 -91 -5z"/>
</g>
</svg>
