<?xml version="1.0" standalone="no"?>
<!DOCTYPE svg PUBLIC "-//W3C//DTD SVG 20010904//EN"
 "http://www.w3.org/TR/2001/REC-SVG-20010904/DTD/svg10.dtd">
<svg version="1.0" xmlns="http://www.w3.org/2000/svg"
 width="567.000000pt" height="567.000000pt" viewBox="0 0 567.000000 567.000000"
 preserveAspectRatio="xMidYMid meet">

<g transform="translate(0.000000,567.000000) scale(0.100000,-0.100000)"
fill="#000000" stroke="none">
<path d="M2660 4561 c0 -5 7 -14 15 -21 16 -14 18 -10 9 14 -6 17 -24 22 -24
7z"/>
<path d="M3911 4427 c2 -1 13 -9 24 -17 19 -14 19 -14 6 3 -7 9 -18 17 -24 17
-6 0 -8 -1 -6 -3z"/>
<path d="M1681 4337 c2 -1 12 -9 22 -16 15 -12 17 -12 11 3 -3 9 -13 16 -22
16 -8 0 -13 -1 -11 -3z"/>
<path d="M1474 4197 c16 -20 30 -37 33 -37 7 0 -36 58 -49 66 -7 4 1 -9 16
-29z"/>
<path d="M1760 4130 c20 -13 33 -13 25 0 -3 6 -14 10 -23 10 -15 0 -15 -2 -2
-10z"/>
<path d="M3670 4096 c0 -2 8 -10 18 -17 15 -13 16 -12 3 4 -13 16 -21 21 -21
13z"/>
<path d="M1897 4069 c7 -7 15 -10 18 -7 3 3 -2 9 -12 12 -14 6 -15 5 -6 -5z"/>
<path d="M1355 3890 c3 -5 11 -10 16 -10 6 0 7 5 4 10 -3 6 -11 10 -16 10 -6
0 -7 -4 -4 -10z"/>
<path d="M4665 3890 c3 -5 8 -10 11 -10 2 0 4 5 4 10 0 6 -5 10 -11 10 -5 0
-7 -4 -4 -10z"/>
<path d="M1390 3867 c0 -3 17 -17 37 -33 20 -15 33 -23 29 -16 -8 13 -66 56
-66 49z"/>
<path d="M2720 3228 c-112 -43 -200 -125 -253 -236 -30 -63 -32 -74 -32 -177
0 -107 1 -112 37 -181 88 -170 235 -253 425 -241 253 15 441 258 389 503 -8
39 -21 86 -29 105 -25 58 -77 120 -113 135 -19 8 -37 21 -41 29 -3 8 -14 15
-26 15 -11 0 -17 3 -14 7 4 3 -6 13 -21 21 -85 46 -231 55 -322 20z m230 -22
c81 -20 111 -35 157 -83 30 -31 40 -48 36 -63 -6 -21 -6 -20 -34 6 -16 15 -26
30 -23 33 3 3 9 -1 14 -9 5 -8 12 -11 17 -7 10 10 -16 27 -42 27 -11 0 -39 11
-63 25 -23 13 -69 29 -102 36 -91 18 -154 7 -240 -43 -8 -5 -23 -11 -32 -14
-10 -4 -18 -11 -18 -16 0 -5 -13 -26 -30 -46 -16 -20 -38 -47 -47 -59 -12 -16
-22 -20 -32 -14 -30 19 109 173 188 208 74 33 166 40 251 19z m29 -97 c68 -29
142 -109 170 -184 39 -102 13 -244 -57 -319 -169 -180 -481 -111 -548 122 -43
146 24 305 158 373 35 18 53 21 105 16 150 -14 275 -137 290 -286 3 -31 11
-60 17 -64 8 -6 7 -10 -2 -14 -6 -2 -10 -9 -7 -13 6 -9 -28 -74 -53 -103 -8
-9 -13 -20 -10 -23 8 -8 55 55 73 99 8 20 17 65 20 100 3 45 2 51 -3 22 l-8
-40 -8 50 c-23 147 -128 259 -268 285 l-53 9 67 -4 c38 -2 89 -14 117 -26z
m181 -89 c0 -5 -2 -10 -4 -10 -3 0 -8 5 -11 10 -3 6 -1 10 4 10 6 0 11 -4 11
-10z m-673 -82 c-3 -7 -5 -2 -5 12 0 14 2 19 5 13 2 -7 2 -19 0 -25z m743 -58
c0 -5 -2 -10 -4 -10 -3 0 -8 5 -11 10 -3 6 -1 10 4 10 6 0 11 -4 11 -10z m-3
-90 c-9 -102 -48 -178 -140 -266 -89 -87 -135 -106 -257 -108 -77 -1 -91 2
-152 32 -122 60 -220 211 -209 322 1 8 16 -18 33 -59 59 -138 173 -228 315
-251 85 -14 142 0 220 56 97 69 163 180 180 301 9 69 16 50 10 -27z m-750 8
c-3 -7 -5 -2 -5 12 0 14 2 19 5 13 2 -7 2 -19 0 -25z"/>
<path d="M945 2960 c-4 -6 3 -10 14 -10 25 0 27 6 6 13 -8 4 -17 2 -20 -3z"/>
<path d="M1360 2950 c0 -5 7 -10 16 -10 8 0 12 5 9 10 -3 6 -10 10 -16 10 -5
0 -9 -4 -9 -10z"/>
<path d="M945 2870 c-3 -5 -1 -10 4 -10 6 0 11 5 11 10 0 6 -2 10 -4 10 -3 0
-8 -4 -11 -10z"/>
<path d="M4330 2856 c0 -2 7 -6 15 -10 8 -3 15 -1 15 4 0 6 -7 10 -15 10 -8 0
-15 -2 -15 -4z"/>
<path d="M4740 2830 c0 -5 5 -10 11 -10 5 0 7 5 4 10 -3 6 -8 10 -11 10 -2 0
-4 -4 -4 -10z"/>
<path d="M1171 2814 c0 -11 3 -14 6 -6 3 7 2 16 -1 19 -3 4 -6 -2 -5 -13z"/>
<path d="M897 2739 c7 -7 15 -10 18 -7 3 3 -2 9 -12 12 -14 6 -15 5 -6 -5z"/>
<path d="M1400 2730 c0 -5 5 -10 11 -10 5 0 7 5 4 10 -3 6 -8 10 -11 10 -2 0
-4 -4 -4 -10z"/>
<path d="M4740 2699 c0 -5 5 -7 10 -4 6 3 10 8 10 11 0 2 -4 4 -10 4 -5 0 -10
-5 -10 -11z"/>
<path d="M1540 1790 c8 -5 20 -10 25 -10 6 0 3 5 -5 10 -8 5 -19 10 -25 10 -5
0 -3 -5 5 -10z"/>
<path d="M1020 1740 c0 -5 5 -10 11 -10 5 0 7 5 4 10 -3 6 -8 10 -11 10 -2 0
-4 -4 -4 -10z"/>
<path d="M3955 1557 c10 -15 20 -25 23 -22 3 3 -5 16 -17 28 l-23 22 17 -28z"/>
<path d="M3515 1300 c3 -5 11 -10 16 -10 6 0 7 5 4 10 -3 6 -11 10 -16 10 -6
0 -7 -4 -4 -10z"/>
<path d="M2273 1145 c-3 -9 -3 -18 -1 -21 3 -3 8 4 11 16 6 23 -1 27 -10 5z"/>
<path d="M3055 1090 c3 -5 8 -10 11 -10 2 0 4 5 4 10 0 6 -5 10 -11 10 -5 0
-7 -4 -4 -10z"/>
<path d="M2516 1075 c-9 -26 -7 -32 5 -12 6 10 9 21 6 23 -2 3 -7 -2 -11 -11z"/>
<path d="M2930 1021 c0 -5 5 -13 10 -16 6 -3 10 -2 10 4 0 5 -4 13 -10 16 -5
3 -10 2 -10 -4z"/>
<path d="M1387 469 c7 -7 15 -10 18 -7 3 3 -2 9 -12 12 -14 6 -15 5 -6 -5z"/>
<path d="M1465 420 c28 -16 55 -30 60 -30 6 0 -12 14 -40 30 -27 16 -54 30
-60 30 -5 0 13 -14 40 -30z"/>
<path d="M1555 380 c-3 -5 1 -10 10 -10 9 0 13 5 10 10 -3 6 -8 10 -10 10 -2
0 -7 -4 -10 -10z"/>
<path d="M1737 289 c7 -7 15 -10 18 -7 3 3 -2 9 -12 12 -14 6 -15 5 -6 -5z"/>
<path d="M1829 250 c24 -11 48 -20 55 -19 15 1 -65 37 -84 38 -8 0 5 -8 29
-19z"/>
<path d="M1900 227 c0 -6 152 -57 168 -57 20 0 -21 21 -68 34 -30 8 -65 18
-77 22 -13 3 -23 4 -23 1z"/>
<path d="M2081 166 c7 -7 182 -46 187 -42 4 5 -36 17 -118 35 -47 11 -76 14
-69 7z"/>
<path d="M2308 113 c6 -2 18 -2 25 0 6 3 1 5 -13 5 -14 0 -19 -2 -12 -5z"/>
<path d="M2363 103 c9 -2 23 -2 30 0 6 3 -1 5 -18 5 -16 0 -22 -2 -12 -5z"/>
<path d="M2643 73 c15 -2 39 -2 55 0 15 2 2 4 -28 4 -30 0 -43 -2 -27 -4z"/>
</g>
</svg>
