<?xml version="1.0" standalone="no"?>
<!DOCTYPE svg PUBLIC "-//W3C//DTD SVG 20010904//EN"
 "http://www.w3.org/TR/2001/REC-SVG-20010904/DTD/svg10.dtd">
<svg version="1.0" xmlns="http://www.w3.org/2000/svg"
 width="567.000000pt" height="567.000000pt" viewBox="0 0 567.000000 567.000000"
 preserveAspectRatio="xMidYMid meet">

<g transform="translate(0.000000,567.000000) scale(0.100000,-0.100000)"
fill="#000000" stroke="none">
<path d="M2650 5544 c-795 -59 -1524 -457 -1995 -1089 -374 -501 -569 -1137
-535 -1743 36 -624 260 -1179 670 -1657 401 -467 991 -791 1640 -900 132 -22
521 -31 675 -16 758 78 1484 498 1927 1116 295 412 457 850 508 1374 15 155
12 307 -10 498 -75 655 -355 1221 -830 1676 -200 192 -412 339 -675 467 -362
177 -730 267 -1130 274 -104 2 -215 2 -245 0z m196 -735 c9 -15 52 -483 45
-491 -3 -4 -28 -10 -56 -13 l-50 -6 -85 115 c-85 115 -107 136 -97 94 3 -13 9
-69 13 -125 l7 -103 -57 0 c-31 0 -56 1 -57 3 -3 14 -47 493 -45 495 2 1 26 5
54 9 l50 6 87 -117 c48 -64 90 -115 92 -112 2 2 -1 50 -7 106 -15 148 -17 138
38 143 26 2 50 4 54 5 4 1 10 -3 14 -9z m280 -10 c24 -6 44 -12 44 -13 0 -1
-7 -56 -15 -121 -24 -195 -23 -197 51 -52 35 70 71 130 80 134 8 3 35 0 61 -7
l46 -13 -7 -151 c-5 -91 -4 -147 2 -141 5 6 30 62 57 125 27 63 52 120 57 126
6 8 20 8 52 0 25 -7 47 -14 51 -17 4 -4 -198 -455 -210 -467 -1 -2 -27 3 -56
11 l-54 13 4 167 c2 92 1 167 -2 167 -3 0 -35 -60 -72 -132 -37 -73 -73 -139
-80 -146 -9 -11 -21 -11 -59 -1 -26 6 -50 18 -53 25 -2 7 2 98 11 201 24 277
27 303 38 303 5 0 29 -5 54 -11z m-910 -138 c22 -10 50 -30 61 -45 35 -44 95
-206 95 -257 1 -166 -203 -249 -320 -131 -26 27 -46 63 -69 127 -44 121 -46
136 -33 184 30 114 156 172 266 122z m1706 -164 c49 -29 75 -64 88 -119 15
-60 3 -103 -60 -209 -56 -93 -84 -121 -140 -138 -54 -16 -79 -14 -137 13 -74
35 -107 93 -101 179 4 53 12 75 55 147 74 124 106 148 203 149 40 1 65 -5 92
-22z m-2193 -111 c15 -8 42 -31 60 -51 27 -31 31 -43 31 -94 l0 -59 83 -32
c45 -18 95 -40 111 -48 33 -16 38 -8 -47 -75 l-35 -28 -102 46 c-90 41 -105
44 -118 32 -12 -13 -6 -24 49 -91 l63 -77 -45 -39 c-24 -22 -47 -39 -51 -40
-6 0 -328 385 -328 393 0 6 140 121 184 151 44 30 101 34 145 12z m2583 -218
c93 -97 108 -122 108 -183 0 -65 -19 -98 -105 -186 -97 -99 -166 -127 -241
-99 -30 12 -194 167 -194 184 0 13 341 356 353 356 5 0 41 -33 79 -72z m-2837
-264 l195 -157 -19 -26 c-10 -14 -28 -34 -40 -45 -18 -16 -23 -17 -40 -5 -62
43 -370 295 -370 303 -1 12 59 86 70 86 6 0 97 -70 204 -156z m3164 51 c16 -8
34 -28 41 -44 45 -109 -111 -185 -165 -81 -20 39 -19 62 6 94 35 45 73 55 118
31z m-1679 -777 c25 -12 49 -20 53 -19 5 1 6 -3 3 -8 -4 -6 -29 -2 -64 10 -31
11 -85 21 -119 22 -77 2 -59 17 22 17 40 0 75 -7 105 -22z m-300 -29 c-91 -73
-110 -92 -110 -104 0 -8 -6 -18 -13 -22 -7 -4 -26 -30 -42 -58 -27 -46 -30
-58 -30 -140 1 -79 4 -97 30 -148 18 -37 54 -82 96 -121 82 -78 165 -111 258
-104 162 12 328 176 347 344 5 38 10 51 15 41 5 -8 4 -38 -1 -67 -22 -115 -87
-215 -179 -274 -33 -22 -58 -43 -55 -47 9 -15 -49 -24 -146 -23 -117 0 -140 3
-162 22 -10 8 -18 12 -18 8 0 -8 -56 20 -93 48 -42 31 -80 111 -112 236 -28
106 -9 217 46 271 16 15 29 31 29 34 0 16 79 88 115 105 52 24 55 24 25 -1z
m57 15 c-3 -3 -12 -4 -19 -1 -8 3 -5 6 6 6 11 1 17 -2 13 -5z m248 -69 c184
-90 232 -341 93 -491 -84 -91 -226 -121 -350 -74 -117 44 -190 156 -189 290 1
226 243 375 446 275z m146 -32 c13 -16 12 -17 -3 -4 -17 13 -22 21 -14 21 2 0
10 -8 17 -17z m-2256 -87 c62 -26 55 -84 -19 -155 -20 -19 -36 -38 -36 -42 0
-4 19 -9 43 -11 34 -2 42 -7 42 -23 0 -18 -8 -20 -77 -23 -72 -3 -78 -1 -78
17 0 35 17 65 65 119 41 45 45 55 34 68 -12 15 -15 14 -30 -5 -22 -27 -69 -29
-69 -3 0 27 22 51 55 61 17 5 31 10 33 10 1 1 18 -5 37 -13z m215 -11 l30 -16
0 -99 c0 -87 -3 -103 -20 -120 -28 -28 -96 -27 -127 2 -20 19 -23 31 -23 105
0 47 5 93 11 104 20 38 80 49 129 24z m121 -60 c-3 -70 2 -69 27 6 16 45 23
55 46 57 l26 3 -21 -56 -21 -57 21 -62 c26 -78 26 -88 -1 -84 -14 2 -25 15
-35 42 -7 22 -16 42 -19 45 -9 10 -24 -23 -24 -56 0 -28 -3 -33 -25 -33 l-25
0 0 131 0 130 27 -3 c26 -3 27 -4 24 -63z m257 49 c16 -11 22 -25 22 -50 0
-31 -3 -35 -22 -32 -13 2 -24 11 -26 23 -2 11 -8 24 -13 30 -18 18 -27 -10
-31 -87 -3 -81 7 -106 36 -95 18 7 22 52 6 62 -16 10 -1 25 26 25 31 0 38 -18
29 -76 -5 -35 -10 -44 -21 -40 -9 3 -24 1 -35 -5 -30 -16 -74 -2 -88 27 -6 14
-11 63 -11 109 0 72 3 88 20 105 24 24 77 26 108 4z m2878 -55 c22 -18 19
-206 -3 -231 -38 -42 -139 -8 -131 45 4 32 45 36 50 5 2 -15 11 -24 26 -26 22
-3 23 -2 20 90 -3 85 -5 93 -23 93 -17 0 -20 -6 -19 -42 1 -41 -1 -43 -28 -43
-27 0 -28 1 -28 53 0 30 2 56 4 58 11 10 119 9 132 -2z m104 -26 c7 -21 17
-42 22 -48 13 -14 28 13 28 53 0 28 3 32 25 32 l26 0 -3 -132 -3 -133 -25 0
c-24 0 -25 3 -25 58 0 31 -2 57 -5 57 -3 0 -14 -25 -25 -56 -19 -56 -38 -75
-56 -57 -7 7 -3 28 10 61 20 51 20 51 1 109 -25 74 -25 93 -1 93 14 0 23 -11
31 -37z m285 13 c24 -24 25 -29 19 -118 -5 -76 -10 -96 -26 -110 -28 -25 -89
-23 -123 4 l-28 22 7 95 c5 81 10 99 27 114 32 26 94 22 124 -7z m222 0 c14
-14 -15 -73 -59 -121 -31 -34 -48 -61 -44 -70 8 -22 33 -18 39 5 3 14 14 20
31 20 22 0 26 -4 26 -30 0 -54 -84 -79 -134 -39 -39 30 -34 63 19 125 25 28
45 57 45 63 0 6 -18 11 -40 11 -32 0 -40 4 -40 18 0 10 3 22 8 26 7 8 140 1
149 -8z m-1757 -310 c0 -2 -8 -10 -17 -17 -16 -13 -17 -12 -4 4 13 16 21 21
21 13z m-30 -39 c0 -2 -12 -14 -27 -28 l-28 -24 24 28 c23 25 31 32 31 24z
m959 -604 c20 -15 41 -32 47 -38 6 -5 75 -62 153 -125 77 -63 141 -119 141
-125 -1 -5 -16 -27 -35 -49 l-34 -38 -183 147 c-101 82 -189 153 -196 160 -10
9 -7 20 20 53 18 22 37 41 42 41 5 1 25 -11 45 -26z m-2494 -22 c22 -10 74
-53 115 -96 l75 -76 -179 -176 -178 -175 -65 63 c-99 97 -123 134 -123 188 1
69 29 118 113 198 99 94 160 112 242 74z m-468 -93 c45 -42 36 -116 -18 -143
-35 -19 -53 -19 -89 0 -34 18 -55 71 -41 106 25 66 97 84 148 37z m2940 -211
c82 -100 152 -187 156 -194 8 -12 -164 -156 -207 -173 -43 -16 -76 -12 -121
15 -59 34 -79 68 -79 136 l-1 56 -107 43 c-60 23 -108 45 -107 49 0 9 97 81
108 81 4 0 50 -19 102 -41 64 -29 97 -39 107 -32 8 5 15 11 16 14 0 3 -26 39
-58 79 l-59 74 44 38 c24 21 47 38 51 38 4 0 74 -82 155 -183z m-2075 -29 c57
-28 91 -86 92 -157 1 -54 -3 -65 -60 -157 -45 -75 -70 -104 -100 -121 -45 -26
-118 -30 -167 -9 -71 29 -127 129 -111 199 12 57 111 214 150 238 67 41 125
43 196 7z m1555 -145 c45 -21 66 -53 108 -163 40 -106 43 -147 14 -208 -54
-111 -224 -135 -302 -42 -37 44 -97 202 -97 256 0 137 146 220 277 157z
m-1199 -24 l23 -9 -7 -165 c-4 -91 -5 -165 -2 -165 3 0 38 64 78 143 40 78 74
143 75 145 4 4 99 -20 107 -27 5 -4 -2 -116 -14 -250 l-22 -243 -40 6 c-22 4
-45 11 -51 16 -8 7 -7 46 5 145 9 74 13 135 9 135 -4 0 -37 -56 -74 -125 -64
-120 -67 -125 -93 -118 -79 19 -77 18 -76 54 5 144 6 251 2 254 -2 2 -28 -52
-58 -121 -30 -69 -58 -128 -62 -130 -10 -6 -98 17 -98 26 0 7 175 384 200 430
12 22 38 22 98 -1z m808 -296 c11 -131 18 -241 15 -245 -3 -3 -26 -8 -51 -10
l-45 -3 -68 89 c-37 49 -77 101 -88 115 l-20 26 6 -121 6 -122 -51 -7 c-29 -4
-55 -3 -60 1 -8 10 -51 476 -44 483 2 2 25 6 52 9 l49 4 83 -108 c46 -60 88
-113 93 -119 9 -10 6 61 -10 193 l-6 52 60 0 59 0 20 -237z"/>
<path d="M2086 4559 c-17 -13 -26 -30 -26 -48 0 -37 66 -203 87 -218 42 -31
113 0 113 49 0 13 -17 65 -37 116 -29 72 -43 97 -64 108 -36 18 -41 18 -73 -7z"/>
<path d="M3804 4409 c-27 -14 -124 -178 -124 -210 0 -33 39 -69 73 -69 29 0
49 23 112 128 45 76 47 107 11 139 -30 25 -40 27 -72 12z"/>
<path d="M1600 4252 l-34 -29 33 -42 c18 -23 38 -40 44 -38 6 2 24 20 41 41
29 35 30 39 15 64 -21 38 -56 39 -99 4z"/>
<path d="M4136 3971 l-99 -99 34 -31 c41 -38 56 -39 105 -3 67 49 124 121 124
157 0 30 -33 75 -56 75 -5 0 -54 -45 -108 -99z"/>
<path d="M4545 3925 c-36 -35 -33 -76 6 -109 22 -19 38 -25 53 -20 36 11 66
45 66 76 0 36 -40 78 -75 78 -14 0 -37 -11 -50 -25z m102 -59 c-4 -9 -16 -16
-27 -16 -13 0 -20 -7 -20 -20 0 -11 -5 -20 -10 -20 -6 0 -8 10 -4 24 9 37 -4
51 -27 30 -32 -29 -21 -2 13 33 l32 33 25 -24 c14 -15 21 -31 18 -40z"/>
<path d="M4595 3900 c-8 -13 3 -30 21 -30 18 0 18 14 0 29 -10 8 -16 9 -21 1z"/>
<path d="M1007 2924 c-4 -4 -7 -43 -7 -86 0 -70 2 -79 18 -76 14 3 17 15 17
82 0 73 -9 99 -28 80z"/>
<path d="M4637 2854 c-4 -4 -7 -43 -7 -86 0 -72 2 -78 20 -78 20 0 21 5 18 82
-3 75 -12 100 -31 82z"/>
<path d="M1540 1812 c-46 -15 -170 -145 -170 -178 0 -7 14 -30 32 -49 l31 -36
103 102 104 103 -26 27 c-28 29 -50 39 -74 31z"/>
<path d="M1035 1805 c-30 -30 -32 -64 -4 -99 41 -52 129 -20 129 48 0 34 -41
76 -75 76 -14 0 -37 -11 -50 -25z m57 -25 c-5 -32 13 -41 36 -18 7 7 12 8 12
2 0 -6 -14 -23 -30 -39 l-30 -29 -27 26 c-22 23 -24 29 -13 42 7 9 19 16 26
16 8 0 14 7 14 15 0 8 4 15 8 15 5 0 7 -13 4 -30z"/>
<path d="M1050 1751 c0 -12 29 -35 36 -28 11 10 -5 37 -21 37 -8 0 -15 -4 -15
-9z"/>
<path d="M3982 1457 c-76 -78 -4 -144 80 -74 l27 22 -32 42 c-18 23 -34 42
-38 43 -3 0 -19 -15 -37 -33z"/>
<path d="M1892 1493 c-6 -2 -38 -47 -69 -100 -62 -105 -64 -132 -11 -162 47
-27 76 -7 135 94 29 49 53 99 53 110 0 44 -62 77 -108 58z"/>
<path d="M3455 1352 c-31 -6 -55 -33 -55 -61 0 -37 57 -182 82 -208 28 -30 69
-29 96 0 29 31 28 52 -9 144 -47 119 -62 136 -114 125z"/>
</g>
</svg>
