<?xml version="1.0" standalone="no"?>
<!DOCTYPE svg PUBLIC "-//W3C//DTD SVG 20010904//EN"
 "http://www.w3.org/TR/2001/REC-SVG-20010904/DTD/svg10.dtd">
<svg version="1.0" xmlns="http://www.w3.org/2000/svg"
 width="567.000000pt" height="567.000000pt" viewBox="0 0 567.000000 567.000000"
 preserveAspectRatio="xMidYMid meet">

<g transform="translate(0.000000,567.000000) scale(0.100000,-0.100000)"
fill="#000000" stroke="none">
<path d="M2542 5539 c-177 -16 -401 -64 -597 -128 -565 -185 -1079 -588 -1404
-1101 -207 -327 -334 -674 -391 -1068 -27 -186 -30 -542 -5 -707 50 -342 135
-617 280 -900 138 -271 308 -499 541 -725 314 -306 637 -499 1096 -656 234
-80 470 -113 813 -113 286 0 441 21 700 94 908 259 1604 965 1859 1885 57 203
84 391 93 625 36 1051 -565 2048 -1522 2523 -447 221 -957 316 -1463 271z
m469 -726 c34 -6 35 -17 19 -188 -5 -55 -7 -102 -5 -104 3 -2 13 16 24 40 45
104 102 219 109 219 4 0 30 -6 57 -13 l50 -13 5 -150 c3 -97 8 -140 13 -124
17 52 90 235 97 243 8 9 88 -7 103 -22 6 -6 -20 -81 -83 -229 -50 -121 -98
-229 -106 -240 -12 -18 -17 -18 -66 -7 l-53 11 -5 170 c-4 138 -7 164 -17 143
-83 -185 -134 -281 -147 -276 -8 3 -30 9 -50 12 -19 4 -40 12 -45 19 -9 11 4
448 15 504 4 20 9 23 31 17 14 -3 38 -9 54 -12z m-259 -218 c16 -121 27 -236
26 -255 -3 -34 -4 -35 -51 -41 -28 -3 -54 -1 -61 5 -7 6 -50 57 -96 114 -45
56 -84 102 -87 102 -2 0 -2 -8 1 -18 12 -37 32 -211 26 -222 -3 -6 -31 -11
-60 -13 l-54 -2 -7 35 c-18 88 -60 463 -53 470 5 4 31 10 57 13 l48 5 86 -109
c48 -60 88 -108 90 -106 2 2 -3 53 -11 113 -8 60 -11 112 -8 116 10 9 52 16
92 14 l34 -1 28 -220z m-669 56 c56 -21 94 -70 137 -171 58 -139 56 -198 -10
-273 -64 -74 -169 -85 -248 -27 -31 22 -51 50 -81 113 -50 106 -63 155 -55
207 18 111 153 190 257 151z m1749 -120 c53 -34 88 -96 88 -159 0 -50 -83
-218 -133 -270 -36 -38 -113 -64 -160 -55 -98 18 -158 86 -165 183 -4 53 0 67
33 132 83 162 125 198 231 198 49 0 68 -5 106 -29z m-2224 -176 c72 -31 104
-74 112 -153 l5 -54 95 -35 c131 -48 132 -51 72 -102 -27 -22 -56 -41 -64 -41
-7 0 -51 16 -97 35 -134 57 -149 44 -62 -55 34 -37 61 -73 61 -78 0 -13 -88
-85 -98 -80 -5 2 -73 77 -152 168 -79 91 -153 176 -164 189 l-21 23 85 80 c77
73 144 117 178 118 7 0 29 -7 50 -15z m2634 -152 c54 -56 90 -102 97 -126 27
-81 -11 -159 -128 -270 -55 -51 -79 -67 -119 -76 -82 -20 -119 -4 -223 96 -57
55 -86 90 -81 98 16 28 345 365 356 365 7 0 51 -39 98 -87z m352 -214 c36 -43
35 -91 -3 -130 -38 -38 -87 -39 -129 -4 -35 30 -45 69 -27 111 17 40 39 53 92
54 34 0 46 -5 67 -31z m-3281 -72 c67 -51 154 -118 194 -148 40 -30 72 -60 72
-68 1 -15 -57 -91 -69 -91 -5 0 -51 33 -102 73 -51 40 -137 106 -192 147 -54
40 -100 80 -103 87 -5 14 53 93 69 93 5 0 64 -42 131 -93z m1585 -733 c120
-35 203 -100 245 -193 27 -60 31 -242 5 -309 -14 -37 -14 -41 -1 -30 14 11 15
10 8 -12 -45 -147 -211 -258 -386 -260 -84 0 -192 42 -264 104 -16 14 -32 26
-35 26 -3 0 -17 19 -32 43 -37 59 -68 161 -67 222 l1 50 9 -54 c14 -83 19 -73
12 23 -11 156 58 304 170 363 82 43 237 55 335 27z m1380 -261 c8 -11 12 -52
12 -117 0 -119 -9 -136 -77 -136 -52 0 -83 26 -83 69 0 46 53 51 61 6 3 -11
12 -21 22 -23 16 -3 18 5 15 85 -2 71 -6 88 -19 91 -19 3 -34 -37 -19 -52 21
-21 10 -36 -25 -36 l-35 0 0 66 c0 64 1 66 23 61 12 -4 29 -2 37 4 20 13 72 3
88 -18z m96 -5 c8 -18 17 -42 21 -52 8 -27 18 -12 24 37 5 37 9 42 31 42 l25
0 3 -137 3 -138 -31 0 c-30 0 -30 0 -31 58 l-1 57 -17 -55 c-14 -47 -21 -55
-44 -58 -32 -4 -33 5 -11 72 16 45 15 48 -10 118 -21 56 -24 73 -14 80 24 15
38 8 52 -24z m302 7 c14 -14 24 -31 21 -38 -5 -17 -55 -21 -73 -6 -21 17 -36
-1 -32 -37 3 -28 5 -29 53 -29 l50 0 -4 -65 c-2 -36 -5 -68 -8 -72 -2 -5 -36
-8 -74 -8 -53 0 -71 4 -75 15 -9 24 14 44 54 47 25 2 37 8 37 18 0 11 -9 14
-33 12 -52 -6 -72 19 -72 89 0 50 3 60 26 78 38 30 98 28 130 -4z m222 -2 c4
-28 -29 -91 -67 -127 -17 -17 -31 -38 -31 -48 0 -24 17 -23 30 3 16 29 64 23
68 -9 9 -65 -102 -99 -153 -47 -37 36 -32 66 20 123 25 27 45 55 45 61 0 6
-18 11 -40 11 -35 0 -40 3 -40 23 0 13 3 27 7 31 4 4 41 5 83 4 68 -3 75 -5
78 -25z m-4054 -14 c40 -31 35 -73 -14 -133 -44 -54 -50 -71 -20 -61 33 10 60
-4 60 -31 0 -23 -2 -24 -79 -24 -44 0 -83 4 -86 10 -9 15 28 91 64 132 31 36
41 68 20 68 -6 0 -13 -9 -16 -20 -4 -14 -14 -20 -34 -20 -35 0 -47 22 -29 55
25 46 90 58 134 24z m316 -39 l6 -55 12 45 c20 70 20 70 41 70 29 0 32 -12 15
-71 -15 -52 -15 -57 9 -122 24 -64 24 -68 7 -77 -23 -13 -46 8 -55 50 -9 40
-25 38 -25 -4 0 -42 -21 -62 -49 -46 -19 10 -21 20 -21 134 0 67 3 126 7 130
4 4 16 6 28 4 17 -3 21 -12 25 -58z m256 35 c34 -34 30 -80 -6 -80 -17 0 -26
7 -30 25 -3 14 -12 25 -20 25 -11 0 -16 -16 -18 -65 -4 -78 3 -110 24 -110 21
0 29 29 15 52 -16 25 -6 38 30 38 l29 0 0 -64 c0 -62 0 -63 -27 -64 -16 0 -43
-1 -62 -2 -18 -1 -38 3 -44 9 -13 13 -26 91 -26 163 -1 50 2 59 25 77 36 29
79 27 110 -4z m-356 7 c0 -21 -28 -41 -60 -44 -24 -2 -36 -9 -38 -21 -3 -16 1
-17 31 -12 51 10 77 -19 77 -84 0 -62 -22 -90 -75 -98 -31 -4 -46 0 -67 17
-16 12 -28 30 -28 41 0 15 7 19 34 19 19 0 38 -5 41 -10 11 -17 25 0 25 29 0
34 -8 43 -29 32 -9 -5 -29 -7 -44 -4 -26 5 -27 8 -27 67 0 35 3 66 7 69 9 10
153 9 153 -1z m3112 -1025 c214 -162 273 -209 276 -218 2 -5 -13 -30 -33 -54
l-36 -45 -42 29 c-137 97 -362 279 -361 293 2 17 55 88 66 88 5 0 63 -42 130
-93z m-2577 -1 c19 -8 71 -50 117 -94 l82 -80 -151 -158 c-83 -88 -160 -167
-172 -178 -20 -18 -21 -18 -93 49 -103 95 -122 125 -122 188 0 65 18 99 97
183 90 97 161 123 242 90z m-442 -116 c37 -41 36 -83 -2 -121 -41 -41 -83 -39
-127 5 -45 45 -45 77 1 123 30 30 40 35 68 29 17 -3 44 -20 60 -36z m2932
-156 c88 -102 161 -189 163 -194 6 -15 -188 -169 -227 -181 -96 -29 -201 60
-201 169 l0 39 -97 38 c-134 52 -134 52 -74 103 27 23 54 42 59 42 6 0 54 -18
108 -40 79 -32 101 -38 111 -28 10 10 0 27 -47 81 -33 38 -60 72 -60 77 0 15
73 79 90 80 8 0 87 -84 175 -186z m-2087 -53 c99 -51 131 -165 76 -274 -57
-113 -93 -157 -141 -179 -98 -43 -204 -2 -250 99 -32 69 -27 110 24 202 49 90
79 129 117 152 41 25 124 25 174 0z m-927 -64 c-10 -9 -11 -8 -5 6 3 10 9 15
12 12 3 -3 0 -11 -7 -18z m89 -89 c0 -5 -4 -8 -10 -8 -5 0 -10 6 -10 14 0 8
-9 18 -20 21 -21 7 -25 16 -13 29 7 6 52 -42 53 -56z m2388 33 c55 -28 76 -56
121 -159 60 -136 56 -207 -16 -273 -43 -40 -66 -49 -130 -49 -64 0 -115 24
-152 72 -12 14 -40 72 -62 128 -39 97 -40 104 -29 148 31 124 160 188 268 133z
m-1170 -55 c3 -4 4 -76 3 -161 -1 -85 0 -155 4 -155 4 0 36 62 72 138 36 75
66 139 68 141 6 5 109 -21 115 -29 6 -10 -16 -490 -24 -497 -3 -3 -28 0 -55 7
l-51 12 1 46 c0 26 4 88 8 137 5 50 7 91 6 93 -1 2 -30 -54 -63 -123 -68 -139
-53 -128 -142 -105 -25 6 -25 7 -30 150 l-5 144 -49 -123 c-27 -67 -55 -125
-62 -128 -23 -9 -99 21 -96 37 4 15 167 402 183 432 8 15 14 15 60 3 28 -8 54
-16 57 -19z m-1111 -82 c54 -53 125 -118 158 -146 54 -46 95 -98 76 -98 -22 0
-227 182 -303 269 -40 45 -52 71 -33 71 2 0 48 -43 102 -96z m1902 -136 c13
-101 26 -209 30 -240 9 -69 2 -78 -59 -78 l-45 1 -84 104 c-47 58 -86 103 -88
102 -2 -2 3 -51 11 -108 7 -57 10 -108 5 -113 -5 -5 -33 -11 -62 -14 l-54 -4
-6 33 c-20 115 -58 442 -53 454 4 11 21 15 59 15 l54 0 87 -110 c48 -60 90
-110 92 -110 2 0 2 10 -1 23 -11 42 -32 212 -28 220 2 4 30 7 62 7 l58 0 22
-182z"/>
<path d="M1965 4525 c-14 -13 -25 -29 -25 -34 0 -23 75 -196 92 -213 39 -39
108 -11 108 44 0 34 -74 199 -96 215 -27 19 -52 16 -79 -12z"/>
<path d="M3683 4428 c-11 -13 -39 -58 -62 -100 -48 -89 -50 -121 -9 -151 46
-34 73 -16 129 85 62 111 66 127 39 161 -27 34 -69 36 -97 5z"/>
<path d="M1507 4213 c-20 -14 -37 -29 -37 -32 1 -3 16 -23 34 -44 l34 -37 31
35 c36 42 38 58 11 85 -25 25 -28 25 -73 -7z"/>
<path d="M4057 4013 l-99 -105 23 -24 c48 -51 86 -38 173 58 74 81 79 100 35
143 l-34 32 -98 -104z"/>
<path d="M4472 3977 c-45 -47 -11 -127 53 -127 29 0 75 46 75 75 0 65 -84 99
-128 52z m92 -16 c20 -22 14 -61 -9 -61 -7 0 -15 -9 -18 -21 -6 -24 -29 -16
-26 9 3 38 0 45 -16 32 -28 -23 -33 -4 -7 27 31 37 52 41 76 14z"/>
<path d="M4520 3951 c0 -13 26 -32 33 -24 8 7 -11 33 -24 33 -5 0 -9 -4 -9 -9z"/>
<path d="M2663 3119 c-76 -29 -154 -104 -189 -181 -24 -52 -29 -76 -29 -138 0
-98 25 -152 107 -234 75 -75 145 -106 240 -106 128 0 271 101 318 226 57 152
-25 340 -184 421 -71 37 -188 42 -263 12z m254 -33 c63 -32 117 -85 151 -149
23 -45 27 -63 26 -137 0 -68 -4 -93 -22 -128 -33 -63 -89 -120 -146 -150 -44
-23 -63 -27 -136 -27 -68 0 -94 5 -131 23 -71 35 -125 87 -156 150 -24 49 -28
69 -28 142 0 91 15 133 69 197 89 106 252 141 373 79z"/>
<path d="M3111 2604 c-12 -27 -11 -28 4 -12 10 9 16 21 13 28 -2 7 -10 -1 -17
-16z"/>
<path d="M3060 2545 c-10 -12 -10 -15 3 -15 8 0 17 7 21 15 3 8 2 15 -3 15 -5
0 -14 -7 -21 -15z"/>
<path d="M3025 2509 c-4 -6 -5 -12 -2 -15 2 -3 7 2 10 11 7 17 1 20 -8 4z"/>
<path d="M2616 2441 c49 -30 166 -53 215 -42 22 5 42 11 44 13 2 2 -35 4 -83
4 -64 1 -101 6 -142 22 -67 27 -74 27 -34 3z"/>
<path d="M2898 2423 c7 -3 16 -2 19 1 4 3 -2 6 -13 5 -11 0 -14 -3 -6 -6z"/>
<path d="M1458 1718 c-95 -100 -102 -124 -48 -173 l21 -19 97 98 97 98 -33 29
c-18 16 -42 29 -53 29 -13 0 -45 -25 -81 -62z"/>
<path d="M1052 1774 c-35 -24 -45 -51 -33 -83 23 -55 93 -65 126 -18 21 30 19
52 -7 81 -30 32 -59 39 -86 20z m44 -28 c-7 -28 2 -40 21 -24 29 24 25 -4 -5
-35 l-32 -32 -27 27 -27 27 30 30 c35 37 48 39 40 7z"/>
<path d="M1060 1705 c0 -8 7 -15 16 -15 14 0 14 3 4 15 -7 8 -14 15 -16 15 -2
0 -4 -7 -4 -15z"/>
<path d="M3978 1463 c-38 -40 -41 -75 -8 -93 22 -12 65 5 89 34 11 13 9 22
-13 51 -15 19 -30 35 -35 35 -4 0 -19 -12 -33 -27z"/>
<path d="M1878 1453 c-27 -31 -98 -169 -98 -190 0 -26 40 -63 68 -63 30 0 51
23 101 114 44 81 47 108 15 140 -21 21 -67 20 -86 -1z"/>
<path d="M3417 1332 c-25 -27 -21 -64 15 -149 37 -89 57 -113 97 -113 34 0 73
41 64 68 -18 58 -70 170 -87 190 -24 27 -67 29 -89 4z"/>
</g>
</svg>
