<?xml version="1.0" standalone="no"?>
<!DOCTYPE svg PUBLIC "-//W3C//DTD SVG 20010904//EN"
 "http://www.w3.org/TR/2001/REC-SVG-20010904/DTD/svg10.dtd">
<svg version="1.0" xmlns="http://www.w3.org/2000/svg"
 width="567.000000pt" height="567.000000pt" viewBox="0 0 567.000000 567.000000"
 preserveAspectRatio="xMidYMid meet">

<g transform="translate(0.000000,567.000000) scale(0.100000,-0.100000)"
fill="#000000" stroke="none">
<path d="M2610 5614 c-256 -23 -557 -95 -790 -189 -763 -307 -1351 -930 -1610
-1705 -69 -209 -125 -481 -141 -696 -27 -354 29 -763 151 -1119 179 -519 534
-999 982 -1328 296 -218 626 -367 1033 -467 210 -51 288 -61 522 -67 452 -11
873 84 1292 293 288 143 490 285 705 494 251 244 413 465 565 772 133 267 218
540 268 858 28 179 25 596 -5 785 -98 618 -359 1138 -786 1567 -420 424 -959
693 -1568 784 -99 15 -518 27 -618 18z m372 -740 c10 -6 4 -194 -8 -256 -6
-31 13 -39 23 -10 3 9 28 68 56 131 l51 113 50 -7 c27 -3 53 -8 58 -11 4 -3 8
-70 8 -150 0 -79 3 -144 8 -144 4 0 20 37 36 83 16 45 39 106 52 135 23 52 25
53 56 47 59 -12 68 -16 67 -33 0 -9 -42 -118 -92 -242 l-92 -225 -49 3 c-27 1
-55 7 -63 13 -10 9 -13 50 -13 170 0 88 -3 159 -7 159 -5 0 -37 -67 -73 -148
l-66 -147 -49 3 c-27 2 -55 8 -62 14 -13 10 -11 182 3 427 l6 93 45 -6 c24 -3
49 -9 55 -12z m-308 -16 c21 -104 66 -472 59 -479 -5 -5 -32 -12 -59 -15 l-49
-6 -88 107 c-49 59 -91 104 -94 102 -2 -3 3 -55 12 -117 10 -61 15 -113 13
-115 -10 -10 -103 -23 -111 -16 -13 13 -78 484 -68 494 5 5 29 12 54 14 l44 5
69 -78 c38 -44 79 -92 91 -109 12 -16 24 -28 27 -25 3 3 -3 56 -13 118 -19
122 -18 127 34 135 66 9 74 8 79 -15z m-614 -183 c14 -7 35 -24 47 -37 28 -29
103 -188 110 -231 7 -47 -13 -112 -49 -153 -76 -86 -184 -94 -267 -19 -49 44
-121 203 -121 266 0 140 156 237 280 174z m1705 -34 c47 -22 89 -64 104 -104
23 -60 14 -112 -38 -215 -53 -105 -85 -142 -143 -166 -52 -22 -95 -20 -155 8
-67 32 -107 96 -107 171 0 41 10 69 53 153 54 104 86 139 146 160 46 16 96 13
140 -7z m438 -316 c48 -42 94 -89 102 -105 21 -41 19 -123 -4 -168 -29 -57
-150 -183 -196 -203 -89 -41 -146 -21 -268 93 l-79 73 173 193 c95 105 175
192 178 192 3 0 46 -34 94 -75z m-2595 25 c51 -37 63 -59 65 -122 l2 -51 100
-34 c55 -19 104 -39 110 -44 10 -10 -71 -99 -91 -99 -7 0 -54 16 -105 35 -139
53 -152 38 -58 -69 66 -75 66 -73 -1 -126 l-38 -30 -163 181 c-90 99 -165 184
-167 189 -4 11 157 168 192 187 40 23 109 16 154 -17z m2961 -231 c49 -46 49
-102 -1 -144 -50 -42 -116 -28 -147 32 -19 37 -13 73 18 104 37 36 95 40 130
8z m-3223 -244 c106 -77 193 -145 193 -151 1 -12 -58 -94 -67 -94 -9 0 -360
256 -386 280 -18 18 -18 19 15 64 18 26 37 45 42 43 5 -1 96 -66 203 -142z
m1349 -605 c-11 -4 -46 -18 -77 -30 -62 -24 -125 -66 -108 -72 7 -2 44 12 83
32 67 33 76 35 171 34 89 0 108 -3 156 -27 55 -27 128 -89 157 -133 8 -13 21
-24 27 -24 7 0 23 -25 35 -56 20 -47 23 -68 19 -147 -4 -99 -29 -170 -84 -242
-39 -52 -143 -129 -190 -143 -65 -19 -193 -15 -265 8 -68 21 -152 71 -131 78
7 2 20 -2 30 -10 9 -7 0 6 -20 29 -86 98 -122 188 -122 304 0 89 20 151 71
222 19 27 32 52 28 55 -7 8 -61 -55 -81 -96 -9 -18 -19 -31 -21 -28 -6 6 56
116 65 116 4 0 23 15 42 33 19 18 48 41 64 51 35 22 124 55 151 55 l20 0 -20
-9z m273 -39 c20 -11 57 -37 81 -59 36 -31 41 -40 28 -45 -11 -4 -17 -1 -17 8
0 15 -101 95 -119 95 -5 0 -13 5 -16 10 -9 15 1 12 43 -9z m1846 -192 c14 -11
26 -29 26 -40 0 -15 -7 -19 -34 -19 -19 0 -38 5 -41 10 -13 22 -25 8 -25 -30
l0 -40 48 3 47 2 0 -70 0 -70 -70 -6 c-38 -4 -74 -3 -80 2 -18 17 10 44 51 49
26 3 40 11 42 23 3 14 -4 17 -42 17 -35 0 -48 5 -60 22 -21 29 -20 97 0 126
31 45 96 54 138 21z m-309 -37 c24 -51 39 -49 43 6 3 37 6 42 27 42 13 0 26
-3 28 -8 3 -4 7 -66 8 -137 l3 -130 -23 -3 c-28 -4 -42 14 -36 48 3 14 2 34
-2 45 -5 15 -10 7 -23 -35 -14 -48 -19 -55 -44 -58 -24 -3 -28 0 -23 15 33
115 33 107 3 177 -15 36 -25 70 -21 76 13 21 40 5 60 -38z m-104 22 c9 -11 15
-51 17 -119 4 -101 4 -102 -23 -123 -55 -44 -139 -11 -133 52 2 25 7 31 28 31
17 0 26 -7 30 -25 3 -14 12 -25 20 -25 12 0 15 18 15 90 0 83 -1 90 -20 90
-17 0 -20 -6 -18 -43 2 -43 2 -43 -30 -40 -31 3 -32 5 -35 52 -2 27 -1 54 1
60 3 6 33 12 69 14 51 2 68 -1 79 -14z m-3138 -105 c29 -16 37 -28 37 -60 0
-18 -6 -28 -19 -32 -23 -6 -41 10 -41 35 0 20 -25 25 -35 7 -4 -5 -4 -46 0
-90 6 -67 10 -79 25 -79 23 0 30 18 18 49 -11 30 1 44 33 39 22 -3 24 -8 24
-63 0 -57 -1 -60 -25 -61 -14 -1 -37 -4 -52 -8 -22 -6 -32 -3 -53 18 -25 25
-26 30 -23 128 3 98 4 103 28 115 31 16 55 16 83 2z m-365 -7 c7 -5 10 -16 6
-25 -6 -16 -19 -22 -69 -29 -11 -2 -21 -12 -23 -22 -3 -15 1 -17 27 -11 22 5
39 2 56 -9 22 -14 25 -24 25 -76 0 -57 -2 -61 -32 -80 -18 -11 -46 -20 -61
-20 -31 0 -81 43 -74 63 5 16 46 22 60 8 23 -23 38 -12 35 27 -3 37 -3 37 -44
34 -23 -2 -45 1 -48 7 -4 6 -4 38 0 70 l6 60 57 4 c31 2 58 4 61 5 3 1 11 -2
18 -6z m122 -48 c0 -66 13 -63 30 6 10 43 15 50 36 50 28 0 28 -1 9 -67 -15
-50 -14 -54 10 -118 26 -71 25 -85 -5 -85 -13 0 -22 12 -32 40 -16 50 -32 52
-38 3 -4 -33 -9 -38 -30 -38 -25 0 -25 0 -30 120 -3 66 -4 126 -2 133 2 6 15
12 28 12 22 0 24 -4 24 -56z m1347 -176 c-3 -8 -6 -5 -6 6 -1 11 2 17 5 13 3
-3 4 -12 1 -19z m759 -75 c-8 -16 -29 -41 -47 -58 -28 -26 -26 -22 12 28 24
31 45 57 47 57 1 0 -4 -12 -12 -27z m-656 -43 c0 -14 -14 -12 -28 2 -19 19
-14 30 8 18 11 -6 20 -15 20 -20z m1822 -676 c112 -81 207 -150 212 -155 13
-12 -63 -111 -78 -102 -67 40 -415 301 -416 312 0 15 58 91 70 91 5 0 100 -66
212 -146z m-2709 -26 c29 -15 187 -158 187 -169 0 -12 -322 -369 -333 -369
-14 0 -160 138 -181 172 -24 38 -26 122 -3 166 29 53 135 171 175 192 42 22
122 26 155 8z m2556 -211 c94 -103 171 -190 171 -192 0 -7 -175 -158 -205
-176 -43 -27 -103 -24 -150 7 -59 38 -78 70 -83 135 l-4 57 -109 37 c-60 20
-111 41 -114 44 -2 4 18 29 45 56 l49 48 108 -41 c79 -30 110 -38 120 -30 20
16 17 23 -47 91 -33 36 -60 68 -60 73 0 17 75 85 91 82 9 -2 94 -88 188 -191z
m-3039 108 c57 -30 69 -103 24 -149 -37 -37 -86 -35 -125 3 -47 47 -35 116 26
149 27 15 41 15 75 -3z m914 -232 c22 -16 50 -48 63 -72 35 -66 30 -112 -20
-217 -55 -111 -85 -148 -142 -170 -126 -48 -258 44 -257 178 1 43 10 70 48
143 55 106 75 131 129 157 54 26 126 18 179 -19z m1588 -75 c46 -26 66 -53
114 -158 51 -110 54 -185 11 -247 -71 -102 -212 -118 -296 -34 -22 22 -53 75
-80 135 -37 86 -43 106 -39 152 12 144 162 223 290 152z m-1224 -80 c9 -8 12
-54 12 -169 0 -88 3 -159 8 -159 4 0 36 66 71 146 l65 146 50 -7 c28 -3 56
-12 62 -18 10 -12 -1 -505 -12 -516 -2 -2 -25 0 -52 5 l-47 9 3 148 c2 103 0
147 -7 142 -6 -3 -11 -10 -11 -16 0 -5 -23 -61 -51 -124 -56 -125 -56 -125
-131 -104 l-38 10 0 144 c0 80 -4 145 -8 145 -5 0 -30 -59 -57 -131 l-48 -131
-30 6 c-16 3 -35 6 -41 6 -42 1 -39 16 39 211 43 107 87 214 97 238 l18 43 48
-7 c26 -4 53 -12 60 -17z m797 -40 c13 -64 66 -480 61 -485 -3 -3 -27 -8 -54
-11 l-48 -4 -93 111 c-52 62 -95 110 -97 109 -2 -2 3 -46 11 -98 23 -152 25
-146 -42 -154 -32 -4 -59 -3 -62 3 -12 20 -74 492 -65 500 5 5 30 11 56 14
l46 6 93 -114 c51 -62 96 -112 100 -110 3 3 -2 53 -12 112 -24 136 -24 131 9
136 72 11 91 8 97 -15z"/>
<path d="M1945 4580 c-29 -11 -47 -36 -47 -63 0 -28 77 -198 95 -209 7 -4 26
-8 44 -8 34 0 63 29 63 61 0 32 -71 184 -96 207 -27 24 -30 25 -59 12z"/>
<path d="M3652 4533 c-11 -10 -41 -59 -68 -108 -54 -103 -55 -134 -4 -160 48
-25 77 -5 132 95 53 96 59 139 26 170 -27 25 -59 26 -86 3z"/>
<path d="M4036 4125 c-53 -58 -96 -110 -96 -115 0 -5 16 -21 35 -36 31 -23 38
-25 63 -15 35 15 150 143 158 178 5 20 0 32 -28 60 l-35 35 -97 -107z"/>
<path d="M1463 4234 c-18 -14 -33 -31 -33 -37 0 -7 15 -27 32 -46 l31 -35 33
37 c39 42 42 59 14 87 -26 26 -38 25 -77 -6z"/>
<path d="M4484 4120 c-28 -11 -54 -48 -54 -78 0 -30 43 -72 74 -72 38 0 55 10
71 41 20 38 19 54 -7 83 -27 29 -55 38 -84 26z m58 -37 c23 -21 23 -40 -2 -55
-11 -7 -20 -18 -20 -25 0 -7 -4 -13 -10 -13 -5 0 -10 14 -10 30 0 32 -9 37
-28 18 -23 -23 -20 -2 4 30 29 36 40 39 66 15z"/>
<path d="M4506 4071 c-7 -10 22 -37 30 -28 9 8 -3 37 -15 37 -5 0 -12 -4 -15
-9z"/>
<path d="M2665 3182 c-97 -34 -182 -109 -227 -199 -31 -65 -31 -174 0 -253 35
-89 106 -169 186 -210 61 -31 78 -35 145 -35 65 0 86 5 143 32 156 73 251 250
218 404 -6 30 -14 66 -17 82 -3 15 -11 27 -19 27 -7 0 -35 23 -61 51 -68 73
-147 110 -242 115 -55 3 -90 -1 -126 -14z m244 -43 c60 -25 134 -101 164 -167
33 -71 31 -188 -4 -263 -33 -69 -89 -127 -155 -160 -41 -20 -64 -24 -139 -24
-80 0 -97 3 -148 29 -204 104 -233 388 -56 540 88 75 227 93 338 45z"/>
<path d="M1441 1703 c-56 -60 -91 -109 -91 -130 0 -18 51 -74 65 -71 17 4 185
190 185 205 0 19 -50 53 -78 53 -19 0 -42 -16 -81 -57z"/>
<path d="M4021 1505 c-35 -41 -39 -65 -13 -88 27 -24 53 -21 92 11 l34 29 -34
41 c-18 23 -37 42 -41 42 -4 0 -21 -16 -38 -35z"/>
<path d="M1015 1735 c-40 -39 -32 -96 16 -120 45 -24 90 1 104 57 6 22 1 33
-23 58 -37 36 -65 38 -97 5z m55 -25 c0 -32 9 -37 28 -18 23 23 13 -10 -12
-39 -27 -30 -48 -27 -70 11 -9 14 -7 21 12 33 12 9 22 22 22 29 0 8 5 14 10
14 6 0 10 -13 10 -30z"/>
<path d="M1032 1668 c5 -15 28 -18 29 -3 0 6 -7 12 -17 13 -10 3 -15 -1 -12
-10z"/>
<path d="M1874 1441 c-29 -27 -104 -174 -104 -205 0 -59 77 -87 118 -43 11 12
39 59 61 105 33 70 38 87 30 111 -9 27 -44 51 -73 51 -7 0 -21 -8 -32 -19z"/>
<path d="M3480 1372 c-30 -9 -50 -36 -50 -65 0 -16 20 -72 44 -123 33 -70 51
-96 70 -104 47 -18 96 17 96 68 0 11 -20 62 -44 114 -36 78 -49 97 -73 105
-15 6 -35 8 -43 5z"/>
</g>
</svg>
